# xmcd
#
# Track frame offsets:
#	150
#	15530
#	31586
#	44652
#	58984
#	74219
#	91298
#	107170
#	121418
#	138748
#	159923
#	176046
#	196465
#
# Disc length: 2813 seconds
#
# Revision: 1
# Processed by: cddbd v1.5.2PL0 Copyright (c) Steve Scherf et al.
# Submitted via: audiograbber 1.83.01
#
DISCID=be0afb0d
DTITLE=Sherrie Austin - Circus Girl
DYEAR=2011
DGENRE=Country
TTITLE0=Circus Girl
TTITLE1=Tryin' To Be Me
TTITLE2=I Didn't
TTITLE3=If I Was a Man
TTITLE4=Just Want To Love You Tonight
TTITLE5=Get Your Leavin' Done
TTITLE6=He's All Yours
TTITLE7=Bad For Me
TTITLE8=Friday Night Girls
TTITLE9=Sleep With Me
TTITLE10=That Kind Of Happy
TTITLE11=Streets of Heaven
TTITLE12=Naughty or Nice
EXTD=
EXTT0=
EXTT1=
EXTT2=
EXTT3=
EXTT4=
EXTT5=
EXTT6=
EXTT7=
EXTT8=
EXTT9=
EXTT10=
EXTT11=
EXTT12=
PLAYORDER=
